<?xml version="1.0" encoding="utf-8"?>
<!-- Generator: Adobe Illustrator 18.1.0, SVG Export Plug-In . SVG Version: 6.00 Build 0)  -->
<svg version="1.0" id="Layer_1" xmlns="http://www.w3.org/2000/svg" xmlns:xlink="http://www.w3.org/1999/xlink" width="183" height="26"
	 viewBox="0 0 183 26" enable-background="new 0 0 183 26" xml:space="preserve" opacity="0.5">
<g>
	<g>
		<g>
			<path fill="#F5F5F5" d="M66,20.3h-3.7L58.2,15h-1.1v5.3h-3V5.8h5.7c2.9,0,5.1,1.3,5.2,4.6c0,2.7-1.2,3.9-3.3,4.4L66,20.3z
				 M59.8,12.2c1.3,0,2.2-0.5,2.2-1.8c0-1.2-0.9-1.7-2.2-1.6h-2.7v3.4H59.8z"/>
		</g>
		<g>
			<path fill="#F5F5F5" d="M78.4,10.3v5.4c0,6.4-11.9,6.4-11.9,0v-5.4C66.5,3.8,78.4,3.9,78.4,10.3z M69.5,15.7c0,2.4,5.9,2.4,5.9,0
				v-5.4c0-2.5-5.9-2.4-5.9,0V15.7z"/>
		</g>
		<g>
			<path fill="#F5F5F5" d="M91,17.4c-1.2,2-3.3,3-5.2,3c-2.8,0-5.6-1.6-5.6-4.8v-5.2c0-3.2,2.8-4.8,5.7-4.8c1.9,0,4.1,1,5,3.1
				L88.5,10c-1.2-2.4-5.3-1.9-5.3,0.4v5.2c0,2.2,4,2.7,5.3,0.3L91,17.4z"/>
		</g>
		<g>
			<path fill="#F5F5F5" d="M95.4,5.8v6l5.2-6h3.7L98,12.9l6.2,7.4h-3.7l-4.5-5.4l-0.6,0.6v4.8h-3V5.8H95.4z"/>
		</g>
		<g>
			<path fill="#F5F5F5" d="M115.4,13.6h-8.4v6.6h-1.2V5.8h1.2v6.7h8.4V5.8h1.2v14.5h-1.2V13.6z"/>
		</g>
		<g>
			<path fill="#F5F5F5" d="M123.6,5.8h1.8l5.2,14.5h-1.3l-1.7-4.8h-6.2l-1.7,4.8h-1.3L123.6,5.8z M127.2,14.2l-2.7-7.6l-2.7,7.6
				H127.2z"/>
		</g>
		<g>
			<path fill="#F5F5F5" d="M142.8,20.3h-1.5l-4.9-6.1h-2.8c0,2,0,4.1,0,6.1h-1.2V5.8h5.5c2.7,0,4.8,1.2,4.8,4.2c0,3-2.2,4.1-4.8,4.1
				h0L142.8,20.3z M138,13c2.2,0,3.6-0.7,3.6-3c0-2.3-1.5-3-3.6-3h-4.3v6H138z"/>
		</g>
		<g>
			<path fill="#F5F5F5" d="M155.6,16.2c-0.1,3-2.1,4-4.8,4h-5.5V5.7h5.5c2.2,0,4.1,1.2,4.1,3.7c0,1.3-0.4,2.5-1.6,3.1
				C155,13.1,155.6,14.5,155.6,16.2z M150.8,12c1.7,0,3-0.7,3-2.5c0-1.8-1.3-2.5-3-2.5h-4.3v5H150.8z M146.5,13.2V19h4.3
				c2.1,0,3.6-0.6,3.6-2.8c0-2.3-1.4-3.1-3.6-3H146.5z"/>
		</g>
		<g>
			<path fill="#F5F5F5" d="M169.3,9.8v6.3c0,5.9-11.5,5.9-11.5,0V9.8C157.8,3.9,169.3,3.9,169.3,9.8z M159,16.2c0,4.3,9,4.3,9.1,0
				V9.8c0-2.3-2.3-3.3-4.6-3.3c-2.2,0-4.5,1-4.5,3.3V16.2z"/>
		</g>
		<g>
			<path fill="#F5F5F5" d="M182.4,20.3H181l-4.9-6.1h-2.8c0,2,0,4.1,0,6.1h-1.2V5.8h5.5c2.7,0,4.8,1.2,4.8,4.2c0,3-2.2,4.1-4.8,4.1
				h0L182.4,20.3z M177.6,13c2.2,0,3.6-0.7,3.6-3c0-2.3-1.5-3-3.6-3h-4.3v6H177.6z"/>
		</g>
	</g>
	<path fill="#F5F5F5" d="M33.1,10.7C31.8,7,25.5,6.2,18.6,8.6c1.5-0.9,3.1-1.7,4.9-2.4c8.7-3.7,17.1-3.6,20.1-0.3
		c0-0.2-0.1-0.3-0.1-0.5c-0.2-1-1-1.8-2-2.2c-2.3-0.9-5-1.7-7.8-2.2C30.6,0.9,26.8,1.8,23,3.5c-7.6,3.4-12.4,9.4-10.7,13.3
		c1.6,3.7,8.4,4.4,15.5,1.6c-1.5,1-3.2,1.9-5,2.6c-5.4,2.4-10.8,3.5-15,3.2c1.8,0.5,3.8,0.8,5.8,1.1c2.6,0,5.6-0.6,8.7-1.9
		C29.7,20.4,34.5,14.7,33.1,10.7z M44.3,11.7c-1.7,4.3-7.2,9.1-14.6,12.2c-2.4,1-4.8,1.7-7,2.2c7,0,13.7-1.2,18.8-3.2
		c1-0.4,1.8-1.3,2-2.3c0.5-2.5,0.8-5,0.8-7.6C44.3,12.6,44.3,12.1,44.3,11.7z M26.6,0.1C25.2,0,23.8,0,22.4,0
		c-7.2,0-14,1.1-19.1,3.2c-1,0.4-1.8,1.3-2,2.2c-0.5,2.5-0.8,5-0.8,7.6c0,0.9,0,1.9,0.1,2.8c1.8-4.3,7.2-9.1,14.6-12.4
		C19.1,1.6,23.1,0.5,26.6,0.1z"/>
</g>
</svg>
