<?xml version="1.0" encoding="UTF-8" standalone="no"?>
<svg width="25px" height="39px" viewBox="0 0 25 39" version="1.1" xmlns="http://www.w3.org/2000/svg" xmlns:xlink="http://www.w3.org/1999/xlink" xmlns:sketch="http://www.bohemiancoding.com/sketch/ns">
    <!-- Generator: Sketch 3.1.1 (8761) - http://www.bohemiancoding.com/sketch -->
    <title>girl 2</title>
    <desc>Created with Sketch.</desc>
    <defs></defs>
    <g id="symbols" stroke="none" stroke-width="1" fill="none" fill-rule="evenodd" sketch:type="MSPage">
        <g id="girl-2" sketch:type="MSLayerGroup" transform="translate(2.000000, 1.500000)">
            <path d="M18.259,9.044 C18.259,9.044 21.219,10.84 21.105,12.942 C20.992,15.044 20.259,19.078 21.108,20.044 C21.957,21.01 16.673,22.26 14.685,17.487 C12.696,12.715 15.708,6.919 15.708,6.919 L18.259,9.044 L18.259,9.044 Z" id="Fill-1" fill="#FFFFFF" sketch:type="MSShapeGroup"></path>
            <path d="M18.259,9.044 C18.259,9.044 21.219,10.84 21.105,12.942 C20.992,15.044 20.259,19.078 21.108,20.044 C21.957,21.01 16.673,22.26 14.685,17.487 C12.696,12.715 15.708,6.919 15.708,6.919 L18.259,9.044 L18.259,9.044 Z" id="Stroke-2" stroke="#1F211F" stroke-width="2" stroke-linecap="round" sketch:type="MSShapeGroup"></path>
            <path d="M7.469,21.825 L7.469,28.805 L12.583,28.805 L12.583,21.304 C14.423,20.489 16.159,18.938 16.846,17.032 C16.922,17.009 16.998,16.996 17.074,16.967 C18.542,16.407 19.352,14.955 18.882,13.723 C18.584,12.941 17.841,12.44 16.963,12.319 C16.543,10.977 17.225,8.565 16.73,5.954 C16.446,4.454 14.06,0.079 9.893,0.079 C5.31,0.079 3.089,3.999 2.924,5.698 C2.698,8.024 3.197,11.13 2.826,12.315 C1.919,12.419 1.144,12.922 0.838,13.723 C0.368,14.955 1.178,16.407 2.646,16.967 C2.741,17.003 2.837,17.022 2.933,17.049 C3.845,19.566 6.077,21.449 8.795,21.853" id="Fill-3" fill="#FFFFFF" sketch:type="MSShapeGroup"></path>
            <path d="M7.469,21.825 L7.469,28.805 L12.583,28.805 L12.583,21.304 C14.423,20.489 16.159,18.938 16.846,17.032 C16.922,17.009 16.998,16.996 17.074,16.967 C18.542,16.407 19.352,14.955 18.882,13.723 C18.584,12.941 17.841,12.44 16.963,12.319 C16.543,10.977 17.225,8.565 16.73,5.954 C16.446,4.454 14.06,0.079 9.893,0.079 C5.31,0.079 3.089,3.999 2.924,5.698 C2.698,8.024 3.197,11.13 2.826,12.315 C1.919,12.419 1.144,12.922 0.838,13.723 C0.368,14.955 1.178,16.407 2.646,16.967 C2.741,17.003 2.837,17.022 2.933,17.049 C3.845,19.566 6.077,21.449 8.795,21.853" id="Stroke-4" stroke="#1F211F" stroke-width="2" stroke-linecap="round" sketch:type="MSShapeGroup"></path>
            <path d="M18.887,25.22 C18.887,25.007 18.424,23.831 16.361,23.601 C14.298,23.37 14.501,23.601 14.501,23.601 C14.501,23.601 11.684,27.896 10.047,27.896 C8.354,27.896 5.56,23.601 5.56,23.601 C5.56,23.601 5.886,23.37 3.823,23.601 C1.76,23.831 1.262,25.007 1.262,25.22 C1.262,25.433 0.705,29.488 0.705,29.488 C0.705,29.488 2.588,35.782 10.424,35.782 C18.259,35.782 19.374,29.488 19.374,29.488 C19.374,29.488 18.887,25.433 18.887,25.22 L18.887,25.22 Z" id="Fill-5" fill="#1C9DC2" sketch:type="MSShapeGroup"></path>
            <path d="M18.887,25.22 C18.887,25.007 18.424,23.831 16.361,23.601 C14.298,23.37 14.501,23.601 14.501,23.601 C14.501,23.601 11.684,27.896 10.047,27.896 C8.354,27.896 5.56,23.601 5.56,23.601 C5.56,23.601 5.886,23.37 3.823,23.601 C1.76,23.831 1.262,25.007 1.262,25.22 C1.262,25.433 0.705,29.488 0.705,29.488 C0.705,29.488 2.588,35.782 10.424,35.782 C18.259,35.782 19.374,29.488 19.374,29.488 C19.374,29.488 18.887,25.433 18.887,25.22 L18.887,25.22 Z" id="Stroke-6" stroke="#1F211F" stroke-width="2" stroke-linecap="round" stroke-linejoin="round" sketch:type="MSShapeGroup"></path>
            <path d="M3.549,8.999 C3.549,8.999 5.5,11.522 9.363,10.443 C13.227,9.363 15.124,6.289 15.124,6.289 C15.124,6.289 15.474,8.646 16.162,9.453 C17.448,10.962 18.151,10.419 18.151,10.419 C18.151,10.419 19.514,1.101 12.583,-0.092 C5.651,-1.285 1.106,1.215 1.106,6.385 C1.106,11.556 0.541,12.071 -0.251,12.64 C-1.043,13.208 3.89,13.552 3.549,8.999 L3.549,8.999 Z" id="Fill-7" fill="#FFFFFF" sketch:type="MSShapeGroup"></path>
            <path d="M3.549,8.999 C3.549,8.999 5.5,11.522 9.363,10.443 C13.227,9.363 15.124,6.289 15.124,6.289 C15.124,6.289 15.474,8.646 16.162,9.453 C17.448,10.962 18.151,10.419 18.151,10.419 C18.151,10.419 19.514,1.101 12.583,-0.092 C5.651,-1.285 1.106,1.215 1.106,6.385 C1.106,11.556 0.541,12.071 -0.251,12.64 C-1.043,13.208 3.89,13.552 3.549,8.999 L3.549,8.999 Z" id="Stroke-8" stroke="#1F211F" stroke-width="2" stroke-linecap="round" stroke-linejoin="round" sketch:type="MSShapeGroup"></path>
        </g>
    </g>
</svg>