<?xml version="1.0" encoding="UTF-8" standalone="no"?>
<svg width="28px" height="22px" viewBox="0 0 28 22" version="1.1" xmlns="http://www.w3.org/2000/svg" xmlns:xlink="http://www.w3.org/1999/xlink" xmlns:sketch="http://www.bohemiancoding.com/sketch/ns">
    <!-- Generator: Sketch 3.1.1 (8761) - http://www.bohemiancoding.com/sketch -->
    <title>Twitter 2</title>
    <desc>Created with Sketch.</desc>
    <defs></defs>
    <g id="symbols" stroke="none" stroke-width="1" fill="none" fill-rule="evenodd" sketch:type="MSPage">
        <g id="Twitter-2" sketch:type="MSLayerGroup" transform="translate(0.500000, 0.000000)" fill="#AFAFAF">
            <path d="M24.236733,5.47946667 C24.2462414,5.71706667 24.2528241,5.9576 24.2528241,6.19666667 C24.2528241,13.5373333 18.6802113,22 8.49167005,22 C5.3634295,22 2.4509549,21.0811333 0,19.5052 C0.434457538,19.5558 0.876229175,19.5822 1.32165786,19.5822 C3.91670053,19.5822 6.30621698,18.6934 8.20130028,17.2047333 C5.77740756,17.16 3.73019098,15.554 3.02657456,13.3466667 C3.3659488,13.4126667 3.71190573,13.4478667 4.06883381,13.4478667 C4.57277529,13.4478667 5.06428281,13.3789333 5.52872816,13.2520667 C2.99439252,12.7431333 1.08468102,10.4976667 1.08468102,7.8078 L1.08468102,7.73666667 C1.83145063,8.15246667 2.6850061,8.40326667 3.59488013,8.43113333 C2.1071922,7.43526667 1.13075985,5.73466667 1.13075985,3.8082 C1.13075985,2.7896 1.40357578,1.837 1.8804551,1.0164 C4.61227143,4.37506667 8.69353921,6.58753333 13.2977651,6.81926667 C13.2026818,6.41226667 13.1536774,5.98766667 13.1536774,5.5528 C13.1536774,2.48746667 15.6346201,0 18.6941081,0 C20.2871191,0 21.7258025,0.673933333 22.7358797,1.7534 C23.9982934,1.50406667 25.183909,1.0428 26.2539618,0.405533333 C25.8399837,1.70206667 24.9622918,2.79033333 23.8183665,3.47673333 C24.9388866,3.344 26.0060138,3.0448 27,2.60406667 C26.2568874,3.718 25.317757,4.69626667 24.236733,5.47946667" id="Imported-Layers" sketch:type="MSShapeGroup"></path>
        </g>
    </g>
</svg>