<?xml version="1.0" encoding="UTF-8" standalone="no"?>
<svg width="34px" height="29px" viewBox="0 0 34 29" version="1.1" xmlns="http://www.w3.org/2000/svg" xmlns:xlink="http://www.w3.org/1999/xlink" xmlns:sketch="http://www.bohemiancoding.com/sketch/ns">
    <!-- Generator: Sketch 3.1.1 (8761) - http://www.bohemiancoding.com/sketch -->
    <title>chat 2</title>
    <desc>Created with Sketch.</desc>
    <defs></defs>
    <g id="symbols" stroke="none" stroke-width="1" fill="none" fill-rule="evenodd" sketch:type="MSPage">
        <g id="chat-2" sketch:type="MSLayerGroup" transform="translate(1.000000, 1.500000)">
            <path d="M25.277,24.659 C27.519,24.541 29.76,25.717 29.76,25.717 C31.19,26.266 31.832,25.578 31.187,24.189 L29.745,21.082 C29.529,20.617 29.665,19.865 29.891,19.1 C30.829,17.456 31.392,15.622 31.449,13.667 C31.665,6.353 24.903,0.218 16.346,-0.035 C7.788,-0.288 0.675,5.437 0.459,12.752 C0.243,20.067 7.006,26.202 15.563,26.454 C15.563,26.454 19.238,26.549 21.042,25.931" id="Fill-2" fill="#FFFFFF" sketch:type="MSShapeGroup"></path>
            <path d="M25.277,24.659 C27.519,24.541 29.76,25.717 29.76,25.717 C31.19,26.266 31.832,25.578 31.187,24.189 L29.745,21.082 C29.529,20.617 29.665,19.865 29.891,19.1 C30.829,17.456 31.392,15.622 31.449,13.667 C31.665,6.353 24.903,0.218 16.346,-0.035 C7.788,-0.288 0.675,5.437 0.459,12.752 C0.243,20.067 7.006,26.202 15.563,26.454 C15.563,26.454 19.238,26.549 21.042,25.931" id="Stroke-3" stroke="#1F211F" stroke-width="2" stroke-linecap="round" sketch:type="MSShapeGroup"></path>
            <path d="M13.042,10.124 C13.042,10.124 13.949,8.472 15.782,8.472 C18.343,8.472 18.692,11.004 17.847,12.355 C16.88,13.899 15,13.847 15,16.195 L15,17" id="Stroke-4" stroke="#1C9DC2" stroke-width="2" stroke-linecap="round" sketch:type="MSShapeGroup"></path>
            <path d="M16.006,20.231 C16.006,20.746 15.588,21.164 15.073,21.164 C14.558,21.164 14.14,20.746 14.14,20.231 C14.14,19.716 14.558,19.298 15.073,19.298 C15.588,19.298 16.006,19.716 16.006,20.231" id="Fill-5" fill="#1C9DC2" sketch:type="MSShapeGroup"></path>
        </g>
    </g>
</svg>