<?xml version="1.0" encoding="UTF-8" standalone="no"?>
<svg width="25px" height="37px" viewBox="0 0 25 37" version="1.1" xmlns="http://www.w3.org/2000/svg" xmlns:xlink="http://www.w3.org/1999/xlink" xmlns:sketch="http://www.bohemiancoding.com/sketch/ns">
    <!-- Generator: Sketch 3.1.1 (8761) - http://www.bohemiancoding.com/sketch -->
    <title>book 2</title>
    <desc>Created with Sketch.</desc>
    <defs></defs>
    <g id="symbols" stroke="none" stroke-width="1" fill="none" fill-rule="evenodd" sketch:type="MSPage">
        <g id="book-2" sketch:type="MSLayerGroup" transform="translate(1.500000, 2.000000)">
            <path d="M22,21 L22,-0.31 L4.282,-0.358 C1.915,-0.358 0,1.416 0,3.784 L0,24.885 C0,27.252 1.791,29 4.159,29 L22,29" id="Fill-2" fill="#FFFFFF" sketch:type="MSShapeGroup"></path>
            <path d="M22,21 L22,-0.31 L4.282,-0.358 C1.915,-0.358 0,1.416 0,3.784 L0,24.885 C0,27.252 1.791,29 4.159,29 L22,29" id="Stroke-3" stroke="#1F211F" stroke-width="2" stroke-linecap="round" sketch:type="MSShapeGroup"></path>
            <path d="M0.012,25.248 C0.012,22.881 2.477,21 4.844,21 L22,21" id="Stroke-4" stroke="#1F211F" stroke-width="2" stroke-linecap="round" sketch:type="MSShapeGroup"></path>
            <path d="M9.285,30.296 L5.542,32.642 L5.542,25.06 L9.285,25.06 L9.285,30.296 L9.285,30.296 Z" id="Fill-5" fill="#FFFFFF" sketch:type="MSShapeGroup"></path>
            <path d="M9.285,30.296 L5.542,32.642 L5.542,25.06 L9.285,25.06 L9.285,30.296 L9.285,30.296 Z" id="Stroke-6" stroke="#1C9DC2" stroke-width="2" stroke-linecap="round" sketch:type="MSShapeGroup"></path>
            <path d="M4,25 L21,25" id="Fill-7" fill="#FFFFFF" sketch:type="MSShapeGroup"></path>
            <path d="M4,25 L21,25" id="Stroke-8" stroke="#1F211F" stroke-width="2" stroke-linecap="round" sketch:type="MSShapeGroup"></path>
        </g>
    </g>
</svg>