<?xml version="1.0" encoding="UTF-8" standalone="no"?>
<svg width="22px" height="22px" viewBox="0 0 22 22" version="1.1" xmlns="http://www.w3.org/2000/svg" xmlns:xlink="http://www.w3.org/1999/xlink" xmlns:sketch="http://www.bohemiancoding.com/sketch/ns">
    <!-- Generator: Sketch 3.1.1 (8761) - http://www.bohemiancoding.com/sketch -->
    <title>instagram 2</title>
    <desc>Created with Sketch.</desc>
    <defs></defs>
    <g id="symbols" stroke="none" stroke-width="1" fill="none" fill-rule="evenodd" sketch:type="MSPage">
        <g id="instagram-2" sketch:type="MSLayerGroup" fill="#AFAFAF">
            <path d="M20,9 L18.0759998,9 C18.2159539,9.53300592 18.2991897,10.0905677 18.2991897,10.6669074 C18.2991897,14.3495594 15.2548204,17.3338148 11.4996317,17.3338148 C7.7451796,17.3338148 4.70081026,14.3495594 4.70081026,10.6669074 C4.70081026,10.0905677 4.7840461,9.53300592 4.92400017,9 L3,9 L3,18.1672685 C3,18.626607 3.38082239,19 3.85077343,19 L19.1492266,19 C19.6191776,19 20,18.626607 20,18.1672685 L20,9 L20,9 Z M19,3.79944531 C19,3.35777431 18.6415945,3 18.1993068,3 L15.8,3 C15.3577123,3 15,3.35777431 15,3.79944531 L15,6.19986133 C15,6.64153233 15.3577123,7 15.8,7 L18.1993068,7 C18.6415945,7 19,6.64153233 19,6.19986133 L19,3.79944531 L19,3.79944531 Z M11.49961,7 C9.01464598,7 7,9.01386602 7,11.49961 C7,13.9845741 9.01464598,16 11.49961,16 C13.985354,16 16,13.9845741 16,11.49961 C16,9.01386602 13.985354,7 11.49961,7 L11.49961,7 Z M19.4620179,22 L2.53798207,22 C1.13662878,22 0,20.8633333 0,19.4604667 L0,2.53806667 C0,1.13593333 1.13662878,0 2.53798207,0 L19.4620179,0 C20.8633712,0 22,1.13593333 22,2.53806667 L22,19.4604667 C22,20.8633333 20.8633712,22 19.4620179,22 L19.4620179,22 Z" id="Imported-Layers" sketch:type="MSShapeGroup"></path>
        </g>
    </g>
</svg>