<?xml version="1.0" encoding="UTF-8" standalone="no"?>
<svg width="166px" height="24px" viewBox="0 0 166 24" version="1.1" xmlns="http://www.w3.org/2000/svg" xmlns:xlink="http://www.w3.org/1999/xlink" xmlns:sketch="http://www.bohemiancoding.com/sketch/ns">
    <!-- Generator: Sketch 3.1 (8751) - http://www.bohemiancoding.com/sketch -->
    <title>Group</title>
    <desc>Created with Sketch.</desc>
    <defs></defs>
    <g id="Page-1" stroke="none" stroke-width="1" fill="none" fill-rule="evenodd" sketch:type="MSPage">
        <g id="RH_Homepage_Wires" sketch:type="MSArtboardGroup" transform="translate(-164.000000, -74.000000)" fill="#20211F">
            <g id="RH_Logo" sketch:type="MSLayerGroup" transform="translate(164.000000, 74.000000)">
                <g id="Group" sketch:type="MSShapeGroup">
                    <path d="M59.724,18.58 L56.364,18.58 L52.634,13.772 L51.669,13.772 L51.669,18.58 L48.923,18.58 L48.923,5.438 L54.1,5.438 C56.736,5.438 58.721,6.645 58.795,9.634 C58.795,12.046 57.7,13.216 55.807,13.587 L59.724,18.58 L59.724,18.58 Z M54.1,11.286 C55.305,11.286 56.067,10.803 56.067,9.652 C56.067,8.54 55.252,8.15 54.1,8.186 L51.669,8.186 L51.669,11.286 L54.1,11.286 L54.1,11.286 Z" id="Fill-1"></path>
                    <path d="M70.978,9.54 L70.978,14.479 C70.978,20.307 60.21,20.325 60.21,14.479 L60.21,9.54 C60.21,3.676 70.978,3.712 70.978,9.54 L70.978,9.54 Z M62.922,14.479 C62.904,16.685 68.249,16.668 68.249,14.479 L68.249,9.54 C68.265,7.276 62.922,7.332 62.922,9.54 L62.922,14.479 L62.922,14.479 Z" id="Fill-2"></path>
                    <path d="M82.472,15.963 C81.341,17.8 79.485,18.71 77.741,18.71 C75.197,18.71 72.636,17.245 72.636,14.349 L72.636,9.67 C72.636,6.794 75.197,5.308 77.796,5.308 C79.54,5.308 81.472,6.2 82.361,8.13 L80.172,9.318 C79.039,7.164 75.345,7.629 75.345,9.67 L75.345,14.349 C75.345,16.37 79.002,16.797 80.117,14.645 L82.472,15.963" id="Fill-3"></path>
                    <path d="M86.396,5.438 L86.396,10.915 L91.071,5.438 L94.396,5.438 L88.753,11.879 L94.396,18.58 L91.017,18.58 L86.916,13.7 L86.396,14.199 L86.396,18.58 L83.666,18.58 L83.666,5.438 L86.396,5.438" id="Fill-4"></path>
                    <path d="M104.533,12.566 L96.87,12.566 L96.87,18.58 L95.775,18.58 L95.775,5.438 L96.87,5.438 L96.87,11.471 L104.533,11.471 L104.533,5.438 L105.63,5.438 L105.63,18.58 L104.533,18.58 L104.533,12.566" id="Fill-5"></path>
                    <path d="M112.002,5.438 L113.598,5.438 L118.35,18.58 L117.2,18.58 L115.622,14.199 L109.981,14.199 L108.439,18.58 L107.288,18.58 L112.002,5.438 L112.002,5.438 Z M115.233,13.104 L112.8,6.254 L110.37,13.104 L115.233,13.104 L115.233,13.104 Z" id="Fill-6"></path>
                    <path d="M129.401,18.58 L128.083,18.58 L123.665,13.012 L121.16,13.012 L121.16,18.58 L120.063,18.58 L120.063,5.438 L125.02,5.438 C127.487,5.438 129.362,6.534 129.418,9.262 C129.418,11.992 127.396,13.012 125.039,13.012 L125,13.012 L129.401,18.58 L129.401,18.58 Z M125.039,12.01 C127.06,12.01 128.323,11.342 128.323,9.262 C128.323,7.202 126.949,6.497 125.039,6.534 L121.16,6.534 L121.16,12.01 L125.039,12.01 L125.039,12.01 Z" id="Fill-7"></path>
                    <path d="M141.024,14.923 C140.968,17.632 139.093,18.58 136.626,18.58 L131.652,18.58 L131.652,5.42 L136.645,5.42 C138.685,5.42 140.393,6.515 140.393,8.76 C140.393,9.93 140.02,10.987 138.985,11.584 C140.523,12.121 141.024,13.345 141.024,14.923 L141.024,14.923 Z M136.645,11.063 C138.183,11.063 139.334,10.432 139.334,8.76 C139.334,7.091 138.129,6.515 136.645,6.515 L132.745,6.515 L132.745,11.063 L136.645,11.063 L136.645,11.063 Z M132.745,12.158 L132.745,17.483 L136.645,17.483 C138.555,17.524 139.929,16.963 139.929,14.906 C139.929,12.826 138.668,12.139 136.645,12.158 L132.745,12.158 L132.745,12.158 Z" id="Fill-8"></path>
                    <path d="M153.411,9.132 L153.411,14.868 C153.411,20.249 142.999,20.249 142.999,14.868 L142.999,9.132 C142.999,3.75 153.411,3.75 153.411,9.132 L153.411,9.132 Z M144.094,14.868 C144.094,18.803 152.297,18.803 152.316,14.868 L152.316,9.132 C152.316,7.054 150.237,6.182 148.176,6.182 C146.136,6.2 144.094,7.091 144.094,9.132 L144.094,14.868 L144.094,14.868 Z" id="Fill-9"></path>
                    <path d="M165.351,18.58 L164.034,18.58 L159.618,13.012 L157.11,13.012 L157.11,18.58 L156.017,18.58 L156.017,5.438 L160.972,5.438 C163.44,5.438 165.313,6.534 165.371,9.262 C165.371,11.992 163.346,13.012 160.99,13.012 L160.95,13.012 L165.351,18.58 L165.351,18.58 Z M160.99,12.01 C163.014,12.01 164.275,11.342 164.275,9.262 C164.275,7.202 162.902,6.497 160.99,6.534 L157.11,6.534 L157.11,12.01 L160.99,12.01 L160.99,12.01 Z" id="Fill-10"></path>
                    <path d="M29.91,9.944 C28.72,6.569 22.976,5.791 16.754,8.013 C18.12,7.207 19.598,6.461 21.169,5.803 C29.083,2.49 36.653,2.508 39.42,5.573 C39.39,5.428 39.367,5.282 39.337,5.139 C39.14,4.235 38.461,3.474 37.519,3.099 C35.413,2.259 33.006,1.593 30.405,1.111 C27.63,0.989 24.198,1.812 20.748,3.343 C13.816,6.419 9.46,11.831 11.022,15.433 C12.485,18.81 18.632,19.392 25.109,16.913 C23.706,17.78 22.18,18.592 20.55,19.314 C15.62,21.501 10.75,22.469 6.97,22.239 C8.62,22.664 10.375,23.006 12.211,23.261 C14.561,23.261 17.312,22.697 20.108,21.526 C26.791,18.727 31.181,13.542 29.91,9.944 L29.91,9.944 Z M40.036,10.782 C38.514,14.657 33.483,19.024 26.819,21.816 C24.651,22.722 22.507,23.381 20.482,23.792 C26.873,23.761 32.913,22.739 37.519,20.906 C38.461,20.527 39.139,19.768 39.337,18.864 C39.822,16.639 40.069,14.331 40.069,12.001 C40.069,11.594 40.051,11.189 40.036,10.782 L40.036,10.782 Z M24.002,0.329 C22.744,0.249 21.465,0.208 20.171,0.208 C13.664,0.208 7.503,1.235 2.822,3.099 C1.879,3.474 1.2,4.235 1.005,5.139 C0.519,7.364 0.272,9.673 0.272,12.001 C0.272,12.845 0.316,13.683 0.381,14.518 C1.973,10.637 6.939,6.25 13.602,3.293 C17.241,1.678 20.844,0.677 24.002,0.329 L24.002,0.329 Z" id="Fill-11"></path>
                </g>
            </g>
        </g>
    </g>
</svg>